<svg xmlns="http://www.w3.org/2000/svg" xmlns:xlink="http://www.w3.org/1999/xlink" xmlns:lucid="lucid" width="1163" height="643"><g transform="translate(-218.5 -158.5)" lucid:page-tab-id="0_0"><path d="M220 166a6 6 0 0 1 6-6h1148a6 6 0 0 1 6 6v628a6 6 0 0 1-6 6H226a6 6 0 0 1-6-6z" stroke="#242f3e" stroke-width="3" fill="#fff" fill-opacity="0"/><path d="M220 160h56v56h-56v-56z" stroke="#fff" stroke-opacity="0" fill="#242f3e"/><path d="M238.22 185.87c-.04.48.04.87.17 1.34.1.4.28.7.48 1.08.04.1.08.2.08.33 0 .2-.12.36-.28.46l-.95.62c-.12.08-.24.13-.37.13-.16 0-.33-.06-.45-.2-.2-.22-.36-.43-.52-.7-.17-.25-.3-.53-.45-.86-1.1 1.37-2.63 2.1-4.4 2.06-1.15.06-2.13-.3-2.96-1.08-.78-.8-1.14-1.76-1.1-2.85-.04-1.23.4-2.28 1.35-3.08 1.07-.85 2.3-1.23 3.66-1.16.57 0 1.02.02 1.6.1.57.1 1.1.2 1.72.33v-1.1c.08-.88-.16-1.67-.7-2.37-.74-.56-1.56-.8-2.46-.7-.53 0-1.03.07-1.6.2-.58.13-1.03.3-1.6.5l-.5.2h-.24c-.2 0-.33-.16-.33-.45v-.75c0-.18.04-.34.12-.5.12-.16.24-.26.4-.33.66-.3 1.2-.5 1.9-.67.77-.2 1.47-.3 2.3-.28 1.47-.13 2.78.26 3.9 1.2.94 1.05 1.35 2.28 1.22 3.67zm-6.07 2.28c.57 0 1.06-.1 1.6-.28.57-.2 1.03-.5 1.44-.96.23-.27.4-.56.48-.93.12-.45.16-.84.16-1.3V184c-.53-.1-.94-.17-1.44-.2H233c-.8-.08-1.55.12-2.2.58-.54.45-.8 1.04-.75 1.73-.04.62.13 1.16.54 1.6.44.38.97.52 1.55.45zm12 1.6c-.22 0-.42-.03-.6-.15-.15-.17-.23-.36-.32-.6l-3.5-11.5-.1-.62c0-.24.1-.37.36-.37h1.47c.2 0 .37.04.57.15.17.18.25.37.3.6l2.5 9.96 2.38-9.93c0-.24.08-.44.28-.6.17-.12.37-.16.58-.14h1.2c.24-.02.4.02.6.13.17.2.25.37.3.6l2.33 9.95 2.56-10c.04-.2.16-.4.33-.58.15-.1.36-.17.56-.14h1.4c.16 0 .33.12.37.3v.31s0 .2-.12.35l-3.6 11.53c-.05.22-.13.42-.3.6-.2.1-.36.14-.57.13h-1.27c-.25.04-.46-.02-.62-.15-.16-.17-.25-.36-.3-.6l-2.3-9.6-2.28 9.6c-.05.24-.13.44-.3.6-.2.13-.4.2-.6.16zm19.2.38c-.82 0-1.52-.07-2.3-.25-.65-.13-1.15-.3-1.72-.6-.2-.1-.37-.23-.45-.4-.08-.16-.12-.3-.12-.45v-.75c0-.3.12-.46.32-.46h.3l.36.16c.58.23 1.03.4 1.6.5.62.14 1.15.2 1.8.2.8.05 1.5-.1 2.2-.5.48-.3.77-.8.73-1.4.04-.4-.13-.76-.38-1.04-.46-.4-.95-.65-1.52-.8l-2.18-.68c-.94-.25-1.73-.73-2.38-1.5-.5-.65-.74-1.35-.74-2.18 0-.6.12-1.08.4-1.6.3-.5.63-.9 1.08-1.22.5-.38.98-.6 1.6-.78.66-.18 1.2-.26 1.9-.25.32-.03.6-.03.97 0l1 .16.8.22.67.26c.16.1.28.22.45.38.08.15.12.3.12.5v.7c0 .3-.12.47-.37.47-.2-.03-.37-.1-.57-.18-.95-.43-1.8-.6-2.88-.58-.7-.04-1.3.1-1.97.4-.5.3-.74.8-.7 1.36 0 .4.13.76.45 1.05.5.4 1 .65 1.6.82l2.1.67c.95.24 1.7.7 2.3 1.44.5.64.7 1.3.7 2.1 0 .63-.13 1.17-.37 1.73-.3.55-.62.95-1.1 1.32-.5.4-1 .66-1.6.84-.75.23-1.4.33-2.15.34zM266.1 197.5c-5.6 3.8-11.36 5.56-18.15 5.54-8.54.05-15.82-2.74-22.16-8.45-.5-.42 0-1 .48-.68 7.07 4.05 14.03 5.9 22.2 5.9 6.1-.04 11.3-1.1 16.93-3.47.83-.35 1.52.55.7 1.14z" stroke="#fff" stroke-opacity="0" fill="#fff"/><path d="M268.16 195.2c-.64-.8-4.16-.38-5.75-.2-.46 0-.53-.36-.1-.66 2.8-1.98 7.42-1.4 8-.74.6.67-.14 5.28-2.78 7.5-.4.33-.78.13-.6-.3.54-1.52 1.86-4.83 1.24-5.6z" stroke="#fff" stroke-opacity="0" fill="#fff"/><use xlink:href="#a" transform="matrix(1,0,0,1,291,180) translate(0 21.52777777777778)"/><use xlink:href="#b" transform="matrix(1,0,0,1,291,180) translate(91.92708333333331 21.52777777777778)"/><path d="M280 400h120v120H280V400z" stroke="#000" stroke-opacity="0" fill="url(#c)"/><path d="M324.97 437.43h3.8v3.8h-3.8v18.63c0-.42.25-.9.58-1.24l5.62-5.6 2.64 2.63-4.3 4.3 4.3 4.28-2.63 2.63-5.62-5.6c-.33-.33-.58-.82-.58-1.32v18.7h3.8v3.8h-3.8v16.82c0 .66-.33 1.24-.9 1.65-.25.18-.58.26-1 .26-.24 0-.5-.08-.82-.17l-22.46-11.3c-.67-.33-1.08-.9-1.08-1.65v-54.33c0-.66.33-1.32.9-1.65l22.55-13.1c.57-.33 1.32-.33 1.9 0 .57.33.9 1 .9 1.65zm56.3-3.7v54.32c0 .74-.4 1.32-1.06 1.65L357.76 501c-.33.08-.58.16-.82.16-.42 0-.75-.08-1-.25-.57-.4-.9-.98-.9-1.64v-16.8h-3.8v-3.8h3.8v-18.72c0 .5-.25 1-.58 1.32l-5.62 5.6-2.64-2.63 4.3-4.3-4.3-4.28 2.63-2.63 5.62 5.6c.33.33.58.82.58 1.24v-18.63h-3.8v-3.8h3.8v-16.8c0-.67.33-1.33.9-1.66.58-.33 1.32-.33 1.9 0l22.54 13.1c.58.33.9 1 .9 1.65zm-60-9.9l-18.83 10.97v52.1l18.82 9.3zm56.3 10.97l-18.83-10.97v72.38l18.82-9.3zm-32.04 16.4l-7.5 20.6-3.56-1.23 7.5-20.6zm-13.04-9.97v-3.8h5.6v3.8zm9.4 0v-3.8h5.6v3.8zm-9.4 41.22v-3.8h5.6v3.8zm9.4 0v-3.8h5.6v3.8z" stroke="#000" stroke-opacity="0" fill="#fff"/><use xlink:href="#a" transform="matrix(1,0,0,1,250,529) translate(26.290147569444457 21.52777777777778)"/><use xlink:href="#d" transform="matrix(1,0,0,1,250,529) translate(118.21723090277777 21.52777777777778)"/><use xlink:href="#e" transform="matrix(1,0,0,1,250,529) translate(44.25347222222222 53.79340277777778)"/><path d="M540 600h120v120H540V600z" stroke="#000" stroke-opacity="0" fill="url(#f)"/><path d="M637.47 680.64c1.02 0 1.9.83 1.9 1.9v16.84c0 1.07-.88 1.9-1.9 1.9h-19.92c-.78 0-1.4-.4-1.73-1.07l-28.18-60.84H575.9c-.54 0-1-.16-1.33-.58-.4-.33-.55-.82-.55-1.32v-16.84c0-1.07.87-1.9 1.9-1.9h24.95c.7 0 1.33.4 1.65 1.07l28.02 60.84zm-1.8 16.93v-13.22h-6.3c-.72 0-1.35-.4-1.66-1.07l-28.02-60.85h-21.96v13.22h11.1c.8 0 1.42.4 1.73 1.07l28.2 60.85zm-49.3-45.66l10.64 22.05c.25.5.25 1.08 0 1.57l-11.56 24.7c-.32.65-1.03 1.06-1.74 1.06h-21.17c-.63 0-1.26-.33-1.57-.9-.4-.5-.4-1.16-.16-1.82L583 651.9c.3-.65.94-1.06 1.65-1.06.8 0 1.42.4 1.73 1.07zm-3.85 45.67l10.7-22.8-8.5-17.74-19.28 40.54z" stroke="#000" stroke-opacity="0" fill="#fff"/><use xlink:href="#g" transform="matrix(1,0,0,1,510,729) translate(46.25 21.52777777777778)"/><use xlink:href="#h" transform="matrix(1,0,0,1,510,729) translate(91.33463541666666 21.52777777777778)"/><path d="M540 400h120v120H540V400z" stroke="#000" stroke-opacity="0" fill="url(#i)"/><path d="M637.47 480.64c1.02 0 1.9.83 1.9 1.9v16.84c0 1.07-.88 1.9-1.9 1.9h-19.92c-.78 0-1.4-.4-1.73-1.07l-28.18-60.84H575.9c-.54 0-1-.17-1.33-.58-.4-.33-.55-.82-.55-1.32v-16.84c0-1.07.87-1.9 1.9-1.9h24.95c.7 0 1.33.4 1.65 1.07l28.02 60.84zm-1.8 16.93v-13.2h-6.3c-.72 0-1.35-.43-1.66-1.1l-28.02-60.83h-21.96v13.2h11.1c.8 0 1.42.42 1.73 1.08l28.2 60.84zm-49.3-45.66l10.64 22.05c.25.5.25 1.08 0 1.57l-11.56 24.7c-.32.65-1.03 1.06-1.74 1.06h-21.17c-.63 0-1.26-.33-1.57-.9-.4-.5-.4-1.16-.16-1.82L583 451.9c.3-.65.94-1.06 1.65-1.06.8 0 1.42.4 1.73 1.07zm-3.85 45.67l10.7-22.8-8.5-17.74-19.28 40.54z" stroke="#000" stroke-opacity="0" fill="#fff"/><use xlink:href="#j" transform="matrix(1,0,0,1,510,529) translate(3.4819878472222285 21.52777777777778)"/><use xlink:href="#k" transform="matrix(1,0,0,1,510,529) translate(68.23893229166667 21.52777777777778)"/><use xlink:href="#l" transform="matrix(1,0,0,1,510,529) translate(105.17469618055556 21.52777777777778)"/><path d="M540 200h120v120H540V200z" stroke="#000" stroke-opacity="0" fill="url(#m)"/><path d="M637.47 280.64c1.02 0 1.9.83 1.9 1.9v16.84c0 1.07-.88 1.9-1.9 1.9h-19.92c-.78 0-1.4-.4-1.73-1.07l-28.18-60.84H575.9c-.54 0-1-.17-1.33-.58-.4-.33-.55-.82-.55-1.32v-16.84c0-1.07.87-1.9 1.9-1.9h24.95c.7 0 1.33.4 1.65 1.07l28.02 60.84zm-1.8 16.93v-13.2h-6.3c-.72 0-1.35-.43-1.66-1.1l-28.02-60.83h-21.96v13.2h11.1c.8 0 1.42.42 1.73 1.08l28.2 60.84zm-49.3-45.66l10.64 22.05c.25.5.25 1.08 0 1.57l-11.56 24.7c-.32.65-1.03 1.06-1.74 1.06h-21.17c-.63 0-1.26-.33-1.57-.9-.4-.5-.4-1.16-.16-1.82L583 251.9c.3-.65.94-1.06 1.65-1.06.8 0 1.42.4 1.73 1.07zm-3.85 45.66l10.7-22.78-8.5-17.75-19.28 40.54z" stroke="#000" stroke-opacity="0" fill="#fff"/><use xlink:href="#n" transform="matrix(1,0,0,1,510,329) translate(30.72265625 21.52777777777778)"/><use xlink:href="#h" transform="matrix(1,0,0,1,510,329) translate(106.86197916666667 21.52777777777778)"/><path d="M400.5 460h123.12" stroke="#3a414a" fill="none"/><path d="M400.5 460.48h-.5v-.96h.5z" stroke="#3a414a" stroke-width=".05" fill="#3a414a"/><path d="M538.38 460l-14.26 4.63v-9.26z" stroke="#3a414a" fill="#3a414a"/><path d="M523.62 260.48h-47.6l-.88.06-.85.2-.8.34-.75.45-.66.56-.57.65-.45.74-.33.8-.2.84-.07.88v188l-.08 1-.24.98-.4.94-.52.87-.66.78-.77.66-.86.53-.94.4-1 .23-.98.08H400.5v-.96h63.48l.88-.06.85-.2.8-.34.75-.45.66-.56.57-.65.45-.74.33-.8.2-.84.07-.88v-188l.08-1 .24-.98.4-.94.52-.87.66-.78.77-.66.86-.53.94-.4 1-.23.98-.08h47.64z" stroke="#3a414a" stroke-width=".05" fill="#3a414a"/><path d="M538.38 260l-14.26 4.63v-9.26z" fill="#3a414a"/><path d="M539.92 260l-16.28 5.3v-10.6zm-15.33 3.98l12.25-3.98-12.26-3.98z" stroke="#3a414a" stroke-width=".05" fill="#3a414a"/><path d="M400.5 460.48h-.5v-.96h.5z" fill="#3a414a"/><path stroke="#3a414a" stroke-width=".05" fill="#3a414a"/><path d="M465 459.6l1 .24.94.4.87.52.78.66.66.77.53.86.4.94.23 1 .08.98v188l.06.88.2.85.34.8.45.75.56.66.65.57.74.45.8.33.84.2.88.07h47.6v.96h-47.64l-1-.08-.98-.24-.94-.4-.87-.52-.78-.66-.66-.77-.53-.86-.4-.94-.23-1-.08-.98v-188l-.06-.88-.2-.85-.34-.8-.45-.75-.56-.66-.65-.57-.74-.45-.8-.33-.84-.2-.88-.07H400.5v-.96h63.52z" stroke="#3a414a" stroke-width=".05" fill="#3a414a"/><path d="M538.38 660l-14.26 4.63v-9.26z" fill="#3a414a"/><path d="M539.92 660l-16.28 5.3v-10.6zm-15.33 3.98l12.25-3.98-12.26-3.98z" stroke="#3a414a" stroke-width=".05" fill="#3a414a"/><path d="M400.5 460.48h-.5v-.96h.5z" fill="#3a414a"/><path stroke="#3a414a" stroke-width=".05" fill="#3a414a"/><path d="M800 400h120v120H800V400z" stroke="#000" stroke-opacity="0" fill="url(#o)"/><path d="M880.8 476.76c0 .4-.07.74-.07 1.07v11.23c0 6.77-12.23 12.22-27.16 12.22-12.97 0-26.07-3.55-27.16-10.32h-.12v-60.68c0-7.5 14.05-11.56 27.3-11.56 7.36 0 14.45 1.24 19.45 3.3l-1.42 3.47c-4.5-1.9-11.13-2.98-18.03-2.98-14.6 0-23.5 4.54-23.5 7.76 0 3.22 8.9 7.76 23.5 7.76h1.07l.15 3.7c-.4.1-.82.1-1.23.1-9.05 0-18.5-1.9-23.5-5.53v8.26c0 1 .87 2.15 2.5 3.22 3.78 2.4 10.46 4.05 17.9 4.38l-.14 3.8c-7.77-.34-14.52-2-18.92-4.55-.6.6-1.34 2-1.34 2.74 0 3.3 8.92 7.76 23.5 7.76 1.37 0 2.72 0 4.07-.08l.27 3.7c-1.42.18-2.9.18-4.33.18-9.05 0-18.5-1.9-23.5-5.45v6.85c0 1.07.87 2.23 2.5 3.3 4.25 2.73 12.3 4.46 21 4.46h.6v3.8h-.6c-8.98 0-18.5-1.9-23.5-4.8-.4.42-.28 1.08-.14 1.83.07.4.13.73.13 1.06 0 3.3 8.92 7.76 23.5 7.76 14.54 0 23.53-4.46 23.53-7.76 0-1.07-1.16-2.15-2.1-2.9-.75.5-1.56.92-2.58 1.33l-1.4-3.48c1-.4 1.88-.9 2.55-1.32 2.03-1.4 3.38-3.38 3.38-4.13h3.78c0 1.82-1.2 3.72-2.7 5.2 2.23 2 2.77 3.97 2.77 5.3zm12.5-29.97l-33.78 34.1c-.34.4-.88.57-1.35.57-.34 0-.68-.1-.95-.25-.74-.5-1.08-1.4-.8-2.23l8.57-25.94h-8.72c-.6 0-1.22-.32-1.56-.9-.34-.58-.4-1.24-.13-1.82l9.38-20.9c.34-.65.94-1.06 1.7-1.06h20.66c.6 0 1.22.33 1.55.82.33.5.4 1.16.2 1.74l-4.66 12.63h8.5c.75 0 1.5.4 1.76 1.16.27.66.14 1.48-.4 2.06zm-5.88.57h-6.7c-.66 0-1.2-.33-1.54-.83-.34-.5-.47-1.15-.2-1.73l4.66-12.62h-16.76l-7.63 17.1h8.3c.62 0 1.16.24 1.56.73.35.5.42 1.17.22 1.74l-6.83 20.8zm-10.47 35.58c-5.07 3.55-14.46 5.37-23.38 5.37-9.05 0-18.5-1.9-23.5-5.45v7.1c0 3.14 8.9 7.5 23.5 7.5 14.06 0 23.38-5.02 23.38-8.4zm-44.8-37.73l1.76-3.38c1.23.66 2.78 1.24 4.47 1.8l-1 3.65c-1.97-.6-3.73-1.34-5.2-2.08zm0 45.5l1.76-3.3c1.23.65 2.78 1.23 4.47 1.72l-1 3.64c-1.97-.58-3.73-1.24-5.2-2.07zm5.2-20.73c-1.95-.6-3.7-1.25-5.2-2l1.76-3.38c1.23.66 2.78 1.24 4.47 1.74z" stroke="#000" stroke-opacity="0" fill="#fff"/><use xlink:href="#p" transform="matrix(1,0,0,1,770,529) translate(47.16145833333334 21.52777777777778)"/><use xlink:href="#q" transform="matrix(1,0,0,1,770,529) translate(31.248914930555564 53.79340277777778)"/><path d="M725 259.6l1 .24.94.4.87.52.78.66.66.77.53.86.4.94.23 1 .08.98v188l.06.88.2.85.34.8.45.75.56.66.65.57.74.45.8.33.84.2.88.07h47.6v.96h-47.64l-1-.08-.98-.24-.94-.4-.87-.52-.78-.66-.66-.77-.53-.86-.4-.94-.23-1-.08-.98v-188l-.06-.88-.2-.85-.34-.8-.45-.75-.56-.66-.65-.57-.74-.45-.8-.33-.84-.2-.88-.07H660.5v-.96h63.52z" stroke="#3a414a" stroke-width=".05" fill="#3a414a"/><path d="M660.5 260.48h-.5v-.96h.5z" fill="#3a414a"/><path stroke="#3a414a" stroke-width=".05" fill="#3a414a"/><path d="M798.38 460l-14.26 4.63v-9.26z" fill="#3a414a"/><path d="M799.92 460l-16.28 5.3v-10.6zm-15.33 3.98l12.25-3.98-12.26-3.98z" stroke="#3a414a" stroke-width=".05" fill="#3a414a"/><path d="M660.5 460h123.12" stroke="#3a414a" fill="none"/><path d="M660.5 460.48h-.5v-.96h.5z" stroke="#3a414a" stroke-width=".05" fill="#3a414a"/><path d="M798.38 460l-14.26 4.63v-9.26z" stroke="#3a414a" fill="#3a414a"/><path d="M783.62 460.48h-47.6l-.88.06-.85.2-.8.34-.75.45-.66.56-.57.65-.45.74-.33.8-.2.84-.07.88v188l-.08 1-.24.98-.4.94-.52.87-.66.78-.77.66-.86.53-.94.4-1 .23-.98.08H660.5v-.96h63.48l.88-.06.85-.2.8-.34.75-.45.66-.56.57-.65.45-.74.33-.8.2-.84.07-.88v-188l.08-1 .24-.98.4-.94.52-.87.66-.78.77-.66.86-.53.94-.4 1-.23.98-.08h47.64z" stroke="#3a414a" stroke-width=".05" fill="#3a414a"/><path d="M660.5 660.48h-.5v-.96h.5z" fill="#3a414a"/><path stroke="#3a414a" stroke-width=".05" fill="#3a414a"/><path d="M798.38 460l-14.26 4.63v-9.26z" fill="#3a414a"/><path d="M799.92 460l-16.28 5.3v-10.6zm-15.33 3.98l12.25-3.98-12.26-3.98z" stroke="#3a414a" stroke-width=".05" fill="#3a414a"/><defs><path d="M52 0l541-1490h220L1361 0h-200l-149-416H398L254 0H52zm404-582h497c-103-290-145-390-251-756-108 377-145 460-246 756" id="r"/><path d="M158 0v-1118h175l1 205c55-151 181-225 313-225 147 0 245 90 285 228 53-141 190-228 352-228 194 0 352 125 352 384V0h-181v-749c0-161-105-225-225-225-151 0-243 103-243 244V0H807v-767c0-124-93-207-219-207-131 0-250 92-250 270V0H158" id="s"/><path d="M471 26C259 26 90-98 90-318c0-256 228-303 435-329 202-27 287-16 287-108 0-139-79-219-234-219-161 0-248 86-283 164l-173-57c86-203 278-265 451-265 150 0 419 46 419 395V0H815v-152h-12C765-73 660 26 471 26zm31-159c199 0 310-134 310-271v-155c-30 35-226 55-295 64-131 17-246 59-246 186 0 116 97 176 231 176" id="t"/><path d="M126 0v-134l627-806v-11H146v-167h839v143L376-178v11h629V0H126" id="u"/><path d="M613 24c-304 0-509-231-509-576 0-350 205-580 509-580 305 0 511 230 511 580 0 345-206 576-511 576zm0-161c226 0 329-195 329-415 0-222-103-419-329-419-223 0-326 196-326 419 0 220 103 415 326 415" id="v"/><path d="M338-670V0H158v-1118h173l1 207c72-158 192-221 342-221 226 0 378 139 378 422V0H872v-695c0-172-96-275-252-275-161 0-282 109-282 300" id="w"/><g id="a"><use transform="matrix(0.010850694444444444,0,0,0.010850694444444444,0,0)" xlink:href="#r"/><use transform="matrix(0.010850694444444444,0,0,0.010850694444444444,15.33203125,0)" xlink:href="#s"/><use transform="matrix(0.010850694444444444,0,0,0.010850694444444444,34.79817708333333,0)" xlink:href="#t"/><use transform="matrix(0.010850694444444444,0,0,0.010850694444444444,47.27647569444444,0)" xlink:href="#u"/><use transform="matrix(0.010850694444444444,0,0,0.010850694444444444,59.22309027777778,0)" xlink:href="#v"/><use transform="matrix(0.010850694444444444,0,0,0.010850694444444444,72.54774305555554,0)" xlink:href="#w"/></g><path d="M783 20c-382 0-661-292-661-764 0-473 279-766 661-766 302 0 548 182 601 489h-190c-42-204-217-313-411-313-268 0-476 208-476 590 0 381 209 588 476 588 195 0 369-110 411-313h190c-52 303-296 489-601 489" id="x"/><path d="M338-1490V0H158v-1490h180" id="y"/><path d="M537 14c-226 0-379-139-379-422v-710h180v695c0 172 97 275 253 275 160 0 281-109 281-300v-670h181V0H879v-209C806-46 684 14 537 14" id="z"/><path d="M577 24c-279 0-473-224-473-580 0-354 195-576 474-576 218 0 287 134 324 193h14v-551h180V0H922v-173h-20C865-111 790 24 577 24zm27-161c203 0 314-172 314-421 0-247-108-413-314-413-212 0-317 181-317 413 0 235 108 421 317 421" id="A"/><g id="b"><use transform="matrix(0.010850694444444444,0,0,0.010850694444444444,0,0)" xlink:href="#x"/><use transform="matrix(0.010850694444444444,0,0,0.010850694444444444,16.23263888888889,0)" xlink:href="#y"/><use transform="matrix(0.010850694444444444,0,0,0.010850694444444444,21.614583333333336,0)" xlink:href="#v"/><use transform="matrix(0.010850694444444444,0,0,0.010850694444444444,34.939236111111114,0)" xlink:href="#z"/><use transform="matrix(0.010850694444444444,0,0,0.010850694444444444,48.07942708333333,0)" xlink:href="#A"/></g><linearGradient gradientUnits="userSpaceOnUse" id="c" x1="280" y1="520" x2="400" y2="400"><stop offset="0%" stop-color="#b0084d"/><stop offset="100%" stop-color="#ff4f8b"/></linearGradient><path d="M180 0v-1490h510c348 0 508 209 508 474 0 266-160 477-507 477H370V0H180zm190-706h312c236 0 327-133 327-310 0-176-91-307-329-307H370v617" id="B"/><path d="M370-1490V0H180v-1490h190" id="C"/><g id="d"><use transform="matrix(0.010850694444444444,0,0,0.010850694444444444,0,0)" xlink:href="#r"/><use transform="matrix(0.010850694444444444,0,0,0.010850694444444444,15.33203125,0)" xlink:href="#B"/><use transform="matrix(0.010850694444444444,0,0,0.010850694444444444,29.524739583333332,0)" xlink:href="#C"/></g><path d="M789 20c-398 0-667-293-667-764 0-473 273-766 655-766 315 0 558 198 612 487h-196c-61-191-204-311-415-311-262 0-471 207-471 590 0 380 208 588 482 588 249 0 420-165 425-427H828v-166h572v163c0 370-256 606-611 606" id="D"/><path d="M598-1118v154H368v674c0 100 37 144 132 144 23 0 62-6 92-12L629-6c-37 13-88 20-134 20-193 0-307-107-307-290v-688H20v-154h168v-266h180v266h230" id="E"/><path d="M628 24c-324 0-524-230-524-574 0-343 198-582 503-582 237 0 487 146 487 559v75H286c9 234 145 362 343 362 132 0 231-58 273-172l174 48C1024-91 857 24 628 24zM287-650h624c-17-190-120-322-304-322-192 0-309 151-320 322" id="F"/><path d="M409 0L70-1118h191c89 329 165 560 243 925 75-353 154-601 240-925h192c85 325 161 564 235 922 77-354 157-598 244-922h191L1267 0h-179c-86-307-176-590-250-913C763-588 675-308 588 0H409" id="G"/><path d="M140 405l46-156c120 36 205 19 263-150l32-93L54-1118h197c107 313 237 620 324 950 87-331 219-637 326-950h196L606 167c-68 178-176 259-334 259-64 0-113-12-132-21" id="H"/><g id="e"><use transform="matrix(0.010850694444444444,0,0,0.010850694444444444,0,0)" xlink:href="#D"/><use transform="matrix(0.010850694444444444,0,0,0.010850694444444444,16.57986111111111,0)" xlink:href="#t"/><use transform="matrix(0.010850694444444444,0,0,0.010850694444444444,29.05815972222222,0)" xlink:href="#E"/><use transform="matrix(0.010850694444444444,0,0,0.010850694444444444,36.11111111111111,0)" xlink:href="#F"/><use transform="matrix(0.010850694444444444,0,0,0.010850694444444444,48.66536458333333,0)" xlink:href="#G"/><use transform="matrix(0.010850694444444444,0,0,0.010850694444444444,66.85112847222221,0)" xlink:href="#t"/><use transform="matrix(0.010850694444444444,0,0,0.010850694444444444,79.00390625,0)" xlink:href="#H"/></g><linearGradient gradientUnits="userSpaceOnUse" id="f" x1="540" y1="720" x2="660" y2="600"><stop offset="0%" stop-color="#c8511b"/><stop offset="100%" stop-color="#f90"/></linearGradient><g id="g"><use transform="matrix(0.010850694444444444,0,0,0.010850694444444444,0,0)" xlink:href="#B"/><use transform="matrix(0.010850694444444444,0,0,0.010850694444444444,14.192708333333332,0)" xlink:href="#t"/><use transform="matrix(0.010850694444444444,0,0,0.010850694444444444,26.345486111111104,0)" xlink:href="#H"/></g><path d="M180 0v-1490h528c311 0 458 177 458 395 0 191-114 278-244 313v14c139 9 302 137 302 371 0 225-148 397-499 397H180zm190-168h350c232 0 321-102 321-231 0-149-120-277-311-277H370v508zm0-668h328c160 0 286-101 286-255 0-129-87-231-280-231H370v486" id="I"/><path d="M158 0v-1118h180V0H158zm91-1301c-68 0-125-53-125-119s57-119 125-119c69 0 126 53 126 119s-57 119-126 119" id="J"/><path d="M538 24C308 24 148-78 108-271l171-41c32 123 123 178 257 178 156 0 256-77 256-169 0-77-54-128-164-154l-186-44c-203-48-300-148-300-305 0-192 176-326 414-326 230 0 351 112 402 269l-163 42c-31-80-94-158-238-158-133 0-233 69-233 162 0 83 57 129 188 160l169 40c203 48 298 149 298 302 0 196-179 339-441 339" id="K"/><g id="h"><use transform="matrix(0.010850694444444444,0,0,0.010850694444444444,0,0)" xlink:href="#I"/><use transform="matrix(0.010850694444444444,0,0,0.010850694444444444,14.539930555555555,0)" xlink:href="#J"/><use transform="matrix(0.010850694444444444,0,0,0.010850694444444444,19.921875,0)" xlink:href="#y"/><use transform="matrix(0.010850694444444444,0,0,0.010850694444444444,25.303819444444443,0)" xlink:href="#y"/><use transform="matrix(0.010850694444444444,0,0,0.010850694444444444,30.68576388888889,0)" xlink:href="#K"/></g><linearGradient gradientUnits="userSpaceOnUse" id="i" x1="540" y1="520" x2="660" y2="400"><stop offset="0%" stop-color="#c8511b"/><stop offset="100%" stop-color="#f90"/></linearGradient><path d="M657 26c-323 0-524-166-541-416h195c15 169 171 246 346 246 202 0 356-106 356-265 5-203-294-238-475-293-239-73-380-191-380-389 0-252 224-419 512-419 294 0 499 171 508 396H992c-17-145-151-228-328-228-193 0-321 102-321 242 0 156 175 211 284 241l149 41c160 44 422 134 422 412 0 244-197 432-541 432" id="L"/><path d="M338-670V0H158v-1490h180v566c73-149 190-208 336-208 226 0 379 139 379 422V0H872v-695c0-172-96-275-252-275-161 0-282 109-282 300" id="M"/><g id="j"><use transform="matrix(0.010850694444444444,0,0,0.010850694444444444,0,0)" xlink:href="#L"/><use transform="matrix(0.010850694444444444,0,0,0.010850694444444444,14.2578125,0)" xlink:href="#M"/><use transform="matrix(0.010850694444444444,0,0,0.010850694444444444,27.39800347222222,0)" xlink:href="#v"/><use transform="matrix(0.010850694444444444,0,0,0.010850694444444444,40.32118055555556,0)" xlink:href="#G"/></g><g id="k"><use transform="matrix(0.010850694444444444,0,0,0.010850694444444444,0,0)" xlink:href="#I"/><use transform="matrix(0.010850694444444444,0,0,0.010850694444444444,14.539930555555555,0)" xlink:href="#J"/><use transform="matrix(0.010850694444444444,0,0,0.010850694444444444,19.921875,0)" xlink:href="#y"/><use transform="matrix(0.010850694444444444,0,0,0.010850694444444444,25.303819444444443,0)" xlink:href="#y"/></g><path d="M645 0H180v-1490h484c435 0 692 280 692 742 0 466-257 748-711 748zM370-168h263c363 0 539-218 539-580 0-358-176-574-521-574H370v1154" id="N"/><g id="l"><use transform="matrix(0.010850694444444444,0,0,0.010850694444444444,0,0)" xlink:href="#N"/><use transform="matrix(0.010850694444444444,0,0,0.010850694444444444,16.03732638888889,0)" xlink:href="#F"/><use transform="matrix(0.010850694444444444,0,0,0.010850694444444444,28.99305555555556,0)" xlink:href="#E"/><use transform="matrix(0.010850694444444444,0,0,0.010850694444444444,36.37152777777778,0)" xlink:href="#t"/><use transform="matrix(0.010850694444444444,0,0,0.010850694444444444,48.849826388888886,0)" xlink:href="#J"/><use transform="matrix(0.010850694444444444,0,0,0.010850694444444444,54.23177083333333,0)" xlink:href="#y"/><use transform="matrix(0.010850694444444444,0,0,0.010850694444444444,59.61371527777778,0)" xlink:href="#K"/></g><linearGradient gradientUnits="userSpaceOnUse" id="m" x1="540" y1="320" x2="660" y2="200"><stop offset="0%" stop-color="#c8511b"/><stop offset="100%" stop-color="#f90"/></linearGradient><path d="M158 0v-1118h174v172h12c41-113 157-188 290-188 26 0 70 2 91 3v181c-11-2-60-10-108-10-161 0-279 109-279 260V0H158" id="O"/><g id="n"><use transform="matrix(0.010850694444444444,0,0,0.010850694444444444,0,0)" xlink:href="#x"/><use transform="matrix(0.010850694444444444,0,0,0.010850694444444444,16.23263888888889,0)" xlink:href="#O"/><use transform="matrix(0.010850694444444444,0,0,0.010850694444444444,24.229600694444443,0)" xlink:href="#F"/><use transform="matrix(0.010850694444444444,0,0,0.010850694444444444,37.40234375,0)" xlink:href="#t"/><use transform="matrix(0.010850694444444444,0,0,0.010850694444444444,49.88064236111111,0)" xlink:href="#E"/><use transform="matrix(0.010850694444444444,0,0,0.010850694444444444,56.93359375000001,0)" xlink:href="#F"/></g><linearGradient gradientUnits="userSpaceOnUse" id="o" x1="800" y1="520" x2="920" y2="400"><stop offset="0%" stop-color="#2e27ad"/><stop offset="100%" stop-color="#527fff"/></linearGradient><g id="p"><use transform="matrix(0.010850694444444444,0,0,0.010850694444444444,0,0)" xlink:href="#r"/><use transform="matrix(0.010850694444444444,0,0,0.010850694444444444,15.33203125,0)" xlink:href="#s"/><use transform="matrix(0.010850694444444444,0,0,0.010850694444444444,34.79817708333333,0)" xlink:href="#t"/><use transform="matrix(0.010850694444444444,0,0,0.010850694444444444,47.27647569444444,0)" xlink:href="#u"/><use transform="matrix(0.010850694444444444,0,0,0.010850694444444444,59.22309027777778,0)" xlink:href="#v"/><use transform="matrix(0.010850694444444444,0,0,0.010850694444444444,72.54774305555554,0)" xlink:href="#w"/></g><g id="q"><use transform="matrix(0.010850694444444444,0,0,0.010850694444444444,0,0)" xlink:href="#N"/><use transform="matrix(0.010850694444444444,0,0,0.010850694444444444,16.03732638888889,0)" xlink:href="#H"/><use transform="matrix(0.010850694444444444,0,0,0.010850694444444444,28.526475694444443,0)" xlink:href="#w"/><use transform="matrix(0.010850694444444444,0,0,0.010850694444444444,41.65581597222222,0)" xlink:href="#t"/><use transform="matrix(0.010850694444444444,0,0,0.010850694444444444,54.13411458333333,0)" xlink:href="#s"/><use transform="matrix(0.010850694444444444,0,0,0.010850694444444444,73.60026041666666,0)" xlink:href="#v"/><use transform="matrix(0.010850694444444444,0,0,0.010850694444444444,86.92491319444443,0)" xlink:href="#N"/><use transform="matrix(0.010850694444444444,0,0,0.010850694444444444,102.96223958333331,0)" xlink:href="#I"/></g></defs></g></svg>